# xmcd
#
# Track frame offsets:
#	187
#	16895
#	33572
#	53835
#	73892
#	95042
#	108440
#	124555
#	138400
#	160425
#
# Disc length: 2363 seconds
#
# Revision: 1
# Processed by: cddbd v1.5.1PL0 Copyright (c) Steve Scherf et al.
# Submitted via: CDex 1.50Beta5
#
DISCID=8b09390a
DTITLE=ビデオ・アニメ・サントラ - 人魚の傷オリジナル・サウンドトラック
DYEAR=1993
DGENRE=
TTITLE0=ビデオ・アニメ・サントラ/Eternal Breath
TTITLE1=ビデオ・アニメ・サントラ/Melancholic Encounters
TTITLE2=ビデオ・アニメ・サントラ/Life,the Shadow of Death
TTITLE3=ビデオ・アニメ・サントラ/Ring ringing in each Heart,A
TTITLE4=新居昭乃/永遠の涙
TTITLE5=ビデオ・アニメ・サントラ/ODD Sign,An
TTITLE6=ビデオ・アニメ・サントラ/Unclosed Fact
TTITLE7=ビデオ・アニメ・サントラ/End of the Begining,The
TTITLE8=ビデオ・アニメ・サントラ/Life is Ripples
TTITLE9=持田真樹/Beads of tears
EXTD=
EXTT0=
EXTT1=
EXTT2=
EXTT3=
EXTT4=
EXTT5=
EXTT6=
EXTT7=
EXTT8=
EXTT9=
PLAYORDER=
